<?xml version="1.0" encoding="UTF-8" standalone="yes"?>
<svg width="512" height="512" viewBox="0 0 512 512" version="1.2" baseProfile="tiny-ps" xmlns="http://www.w3.org/2000/svg">
  <title>bimi-svg-tiny-12-ps</title>
  <path d="M0 0h512v512H0z" fill="#fff"/>
  <path d="M492.89 233.03v45.72c-20.2 200.56-272.92 290.11-413.6 142.41-64.46-67.68-83.83-190.94-14.48-261.89 65.85-67.37 135.4 32.82 64.44 72.76-22.76 12.81-39.2 7.54-59.35 15.46-33.02 12.97-32.2 69.55 8.58 74.72 42.17 5.35 37.93-37.03 63.33-54.75 24.82-17.32 59.71-9.72 68.32 20.78 14.01 49.67-30.11 62.63-26.86 103.75 3.49 44.13 53.64 52.37 68.68 10.54 13.75-38.25-20.83-61.06-9.06-98.42 9.7-30.79 39.3-30.16 58.76-7.64 21.11 24.43 18.06 57.29 38.67 81.86 39.98 47.65 100.49-12.87 60.18-51.86-23.28-22.52-76.36-20.76-87.93-55.46-10.34-31.02 12.57-42.08 40.13-40.11 29.23 2.08 62.91 35.38 90.22 17.63 28.4-18.45 11.61-55.65-18.06-60.71-30.76-5.25-49.5 21.34-84.46 7.57-26.6-10.48-39.32-49.65-8.34-63.94 13.22-6.1 29.68-3.67 39.11-17 8.29-11.74 6.74-27.56-3.98-37.28-10.53-9.54-13.73-5.01-22.82 2.16-19.94 15.73-38.13 36.07-58.67 51.46-42.35.21-77.35-22.17-71.1-69.01 5.69-42.64 64.84-45.89 97.87-40.04 95.65 16.93 172.42 117.21 180.42 211.31Z"/>
</svg>